<svg width="724" height="178" viewBox="0 0 724 178" fill="none" xmlns="http://www.w3.org/2000/svg">
<path d="M43 37.4C30.2 37.4 19.6 47.8 19.6 60.6C19.6 73.6 30.2 84 43 84H84.4C96.4 84 107.6 90.4 113.6 101C116.4 106 118 111.8 118 117.6C118 123.4 116.4 129.2 113.6 134.2C107.6 144.6 96.4 151 84.4 151H9.4V140.8H84.4C97.2 140.8 107.8 130.4 107.8 117.6C107.8 104.6 97.2 94.2 84.4 94.2H43C31 94.2 19.8 87.8 13.8 77.4C11 72.2 9.4 66.6 9.4 60.6C9.4 54.8 11 49 13.8 44C19.8 33.6 31 27.2 43 27.2H119V37.4H43ZM211.964 26.4C246.364 26.4 274.364 54.4 274.364 88.8C274.364 123.2 246.364 151 211.964 151C177.564 151 149.564 123.2 149.564 88.8C149.564 54.4 177.564 26.4 211.964 26.4ZM211.964 140.2C240.364 140.2 263.364 117.2 263.364 88.8C263.364 60.4 240.364 37.2 211.964 37.2C183.564 37.2 160.364 60.4 160.364 88.8C160.364 117.2 183.564 140.2 211.964 140.2ZM311.798 151V69.8L322.598 80.6V151H311.798ZM407.398 47.4L426.798 28.2V151H415.998V54L407.998 62L380.598 89.4L375.398 94.6L373.998 96L369.798 100.4L330.598 61L322.598 53L311.798 42.4V27.2L369.798 85.2L407.398 47.4ZM460.752 151L505.952 64.4L511.952 76.2L472.952 151H460.752ZM532.352 42.6L588.952 151H576.752L529.752 61L518.752 39.6L524.752 28L532.352 42.6Z" fill="#E1FF51"/>
<path d="M646.193 99.5353L614.115 153.164L582.369 95.9888L646.193 99.5353Z" fill="#E1FF51"/>
<path d="M639.941 92.718L614.264 115.155L721.105 162.467L639.941 92.718Z" fill="#E1FF51"/>
<path d="M642.76 102.66L617.083 79.6083L723.925 31L642.76 102.66Z" fill="#E1FF51"/>
<path d="M582.424 96.0432L614.444 41.6865L646.448 99.7144L582.424 96.0432Z" fill="#E1FF51"/>
<path d="M219 89.5C219 93.6421 215.642 97 211.5 97C207.358 97 204 93.6421 204 89.5C204 85.3579 207.358 82 211.5 82C215.642 82 219 85.3579 219 89.5Z" fill="#E1FF51"/>
</svg>
